<svg width="87" height="40" viewBox="0 0 87 40" fill="none" xmlns="http://www.w3.org/2000/svg">
<g id="kleam-logo">
<path id="Union" fill-rule="evenodd" clip-rule="evenodd" d="M51.3351 7.54989C51.6117 7.54989 51.834 7.78008 51.834 8.06225L51.8322 8.06411V9.19836C51.8322 9.48238 51.6081 9.71072 51.3333 9.71072H48.132C47.9025 9.71072 47.6892 9.58263 47.5807 9.37471C46.7872 7.84134 45.2163 6.79806 43.4069 6.79806C41.5975 6.79806 40.0285 7.84134 39.2331 9.37471C39.1264 9.58263 38.9113 9.71072 38.6818 9.71072H35.5275C35.2509 9.71072 35.0286 9.48053 35.0286 9.19836V8.06411C35.0286 7.78008 35.2527 7.55175 35.5275 7.55175H40.5039C40.6467 7.55175 40.7208 7.37354 40.6177 7.26772L37.0983 3.65335C36.9031 3.45286 36.9031 3.12985 37.0983 2.92937L37.8792 2.12741C38.0744 1.92692 38.3889 1.92692 38.5842 2.12741L42.1036 5.73992C42.2048 5.84574 42.3802 5.77148 42.3802 5.62297V0.512361C42.3802 0.228335 42.6043 0 42.8791 0H43.9835C44.2601 0 44.4824 0.230191 44.4824 0.512361V5.62297C44.4824 5.77148 44.656 5.84574 44.759 5.73992L48.2785 2.12555C48.4737 1.92506 48.7882 1.92506 48.9834 2.12555L49.7643 2.92751C49.9595 3.128 49.9595 3.45101 49.7643 3.6515L46.2449 7.26587C46.1418 7.36982 46.2141 7.54989 46.3588 7.54989H51.3351ZM41.9444 8.63034C42.7651 7.78754 44.0955 7.78754 44.9161 8.63034H44.9143L49.8762 13.7261C50.0082 13.8616 50.0082 14.0788 49.8762 14.2143L48.8658 15.252C48.7338 15.3876 48.5223 15.3876 48.3904 15.252L43.9093 10.6501C43.6436 10.3772 43.2152 10.3772 42.9494 10.6501L38.4683 15.252C38.3364 15.3876 38.1249 15.3876 37.9929 15.252L36.9825 14.2143C36.8505 14.0788 36.8505 13.8616 36.9825 13.7261L41.9444 8.63034Z" fill="#2E2B2F"/>
<path id="Union_2" fill-rule="evenodd" clip-rule="evenodd" d="M3.33505 15L0 15.6806V38.0651H3.33505V28.7171L3.38976 28.6801C3.99854 28.3142 4.63314 28.0239 5.16873 28.0239C6.11359 28.0239 6.93834 28.3802 7.61897 30.0337V30.0297L10.926 38.0651H14.5013L10.958 29.8256C10.1012 27.8437 8.71197 27.1952 7.35472 27.1952C6.48666 27.1952 5.66787 27.3707 4.91032 27.6505L12.9919 22.1786H12.4033L3.33505 28.3354V15ZM21.5957 15L18.2607 15.6806V38.0651H21.5957V15ZM61.7885 22.7069L65.1276 22.0263V25.3054C65.9842 22.9286 68.2744 21.9662 70.5645 21.9662C73.1686 21.9662 75.0165 23.0298 75.5647 25.8341C76.2555 23.0704 78.7049 21.9662 81.1342 21.9662C84.2931 21.9662 86.3309 23.5037 86.3309 27.7555V38.061H82.9919V27.3392L82.9959 27.3432C82.9959 24.3004 82.1391 22.7069 79.805 22.7069C77.9484 22.7069 75.7414 24.0886 75.7293 27.4357C75.7319 27.5406 75.7333 27.6472 75.7333 27.7555V38.061H72.3942V27.3432C72.3942 24.3004 71.5374 22.7069 69.2073 22.7069C67.3776 22.7069 65.1316 24.0962 65.1316 27.4633L65.1276 27.4636V38.061H61.7885V22.7069ZM56.2875 29.8534V32.9282L56.2835 32.9242C56.2835 36.4074 56.816 37.7086 58.3213 37.9729L58.2613 38.2691C54.9823 38.0649 52.9444 36.8518 52.9444 33.8691C52.2438 36.3033 50.3501 38.2691 46.8629 38.2691C44.6769 38.2691 42.9953 37.1161 42.9953 34.9901C42.9953 32.4198 45.3575 29.9695 52.9484 29.6452C52.9549 29.6452 52.9509 28.7771 52.9491 28.4011C52.9487 28.314 52.9484 28.2533 52.9484 28.236C52.9484 26.5424 52.9284 24.6086 51.4791 23.4436C50.7424 22.851 49.7735 22.6388 48.8567 22.5868C47.8518 22.5307 46.8228 22.7269 45.9821 23.3075C44.6889 24.2003 43.696 25.6816 42.9433 27.8436C42.7191 28.4829 42.522 29.1628 42.3301 29.8242C42.3129 29.8835 42.2958 29.9426 42.2787 30.0016L42.2743 30.0168C41.583 32.4063 40.8692 34.8736 38.9036 36.5756C38.295 37.1041 37.5984 37.5245 36.8497 37.8207C35.3483 38.3732 33.7789 38.4573 32.2775 38.177C30.9203 37.9208 29.5951 37.3643 28.5661 36.4275C28.3339 36.2153 28.1137 35.9911 27.9055 35.7508C27.5092 35.2904 27.1569 34.7779 26.8846 34.2374C26.2761 33.0404 26.0038 31.6991 26.0038 30.3579C26.0038 25.2773 29.8433 21.9702 34.3634 21.9702C38.9436 21.9983 40.9495 24.8929 40.0647 27.3752H29.7072C29.5751 28.1118 29.491 28.8685 29.491 29.7373C29.491 30.6061 29.5671 31.4789 29.7432 32.3317C30.0195 33.6609 30.584 34.9621 31.5088 35.975C32.3656 36.9039 33.5907 37.4043 34.8359 37.5084C36.2171 37.6245 37.5864 37.1721 38.6353 36.2633C40.5091 34.6338 41.2057 32.2236 41.8783 29.8895C42.0865 29.1648 42.3027 28.4201 42.5509 27.7115C43.3316 25.4614 44.3766 23.912 45.7458 22.9671C46.7868 22.2465 48.092 21.8301 49.3331 21.7821C51.3189 21.71 53.4529 22.3826 54.8662 23.864C56.3052 25.3701 56.2967 27.4629 56.2887 29.4215C56.2881 29.5663 56.2875 29.7104 56.2875 29.8534ZM37.3181 25.1571C37.3181 23.6237 36.3733 22.3226 34.3634 22.3226C31.9412 22.3226 30.3638 24.1762 29.7672 27.0188H35.0441C36.4333 27.0188 37.3181 26.6065 37.3181 25.1571ZM46.3304 34.4336C46.3304 36.0551 47.2472 37.2082 48.8727 37.2082L48.8687 37.2122C50.8785 37.2122 52.9444 35.0262 52.9444 31.4509V30.0016C47.4834 30.0016 46.3304 32.5719 46.3304 34.4336Z" fill="#2E2B2F"/>
</g>
</svg>
