<svg width="117" height="26" viewBox="0 0 117 26" fill="none" xmlns="http://www.w3.org/2000/svg">
<g clip-path="url(#clip0_274_10577)">
<path d="M1.63599 14.1598C1.63599 9.46991 4.96988 6.1792 8.43333 6.1792C10.2817 6.1792 11.4649 6.54627 12.5834 7.25451V9.92335H12.1991C11.4433 8.37732 10.3896 6.73629 8.67085 6.73629C5.87677 6.73629 4.0889 9.4915 4.0889 13.5552C4.0889 18.2019 6.00632 21.4063 8.52402 21.4063C10.5667 21.4063 11.6031 19.7264 12.6137 18.1588H12.9807V20.7844C11.7759 21.4322 10.4846 21.9677 8.20445 21.9677C5.06489 21.9677 1.64462 19.7739 1.64462 14.1598H1.63599Z" fill="white"/>
<path d="M14.415 21.1086C16.3325 21.1086 16.4145 21.087 16.4145 19.7958V8.3949C16.4145 7.03889 16.3713 7.03889 14.415 7.03889V6.39111H24.9565L25.2329 9.08155H24.5247C24.2224 7.05616 23.1039 7.03457 20.8021 7.03457H18.7379V13.2748L21.601 13.3396C22.4604 13.3612 23.5573 12.9941 23.5573 11.4006H24.2267V15.9825H23.5573C23.5573 14.281 22.6332 13.8967 21.601 13.9183L18.7163 13.9831V21.1043H20.5473C23.3241 21.1043 24.2483 20.6724 25.2804 18.565H25.9282L25.22 21.7521H14.4194V21.1043L14.415 21.1086Z" fill="white"/>
<path d="M39.2639 21.1092V21.757H35.6493L31.3005 14.7826H30.9982V20.3319C30.9982 21.0876 31.0198 21.1049 32.5443 21.1049V21.7527C30.9723 21.7527 30.9119 21.6879 29.8582 21.6879C29.042 21.6879 28.934 21.7527 26.995 21.7527V21.1049C28.5885 21.1049 28.6749 21.0833 28.6749 20.3319V7.91618C28.6749 7.05679 28.6101 7.0352 26.9734 7.0352V6.38742H28.4158C30.5664 6.38742 31.0846 6.1499 32.5659 6.1499C35.3427 6.1499 37.7308 7.39795 37.7308 10.3432C37.7308 12.4506 35.7918 14.1089 33.0841 14.6012L36.8498 19.5503C38.1195 21.2042 38.2922 21.0963 39.2596 21.0963L39.2639 21.1092ZM31.3005 14.3983C33.4728 14.3983 35.2563 13.215 35.2563 10.6541C35.2563 7.94209 34.1594 6.61198 32.3068 6.61198C31.5769 6.61198 30.9507 6.80632 30.778 6.95746V13.4525C30.778 14.3335 30.8428 14.3983 31.2962 14.3983H31.3005Z" fill="white"/>
<path d="M39.7122 21.108C41.0466 21.108 41.0898 21.108 41.5216 19.5361L44.7087 8.1741C44.9678 7.20675 44.9462 7.03401 44.0393 7.03401H43.6291V6.38623C44.0825 6.38623 44.5532 6.45101 45.0498 6.45101C45.4601 6.45101 45.8444 6.38623 46.3411 6.38623C47.0709 6.38623 47.0709 6.45101 47.1573 6.73171L50.9662 20.0068C51.2685 21.0821 51.4412 21.1037 52.3222 21.1037V21.7515C51.0742 21.7515 50.8582 21.6867 50.1068 21.6867C49.3554 21.6867 49.0747 21.7515 47.438 21.7515V21.1037C48.5997 21.1037 48.6644 21.039 48.4917 20.456L47.4596 16.755H43.1799L42.3162 19.9205C42.0355 20.9742 42.0787 21.1037 43.6722 21.1037V21.7515C42.2514 21.7515 42.4026 21.6867 41.4568 21.6867C40.8566 21.6867 40.835 21.7515 39.7122 21.7515V21.1037V21.108ZM47.2609 16.2065L45.3694 8.89097L43.2836 16.2065H47.2652H47.2609Z" fill="white"/>
<path d="M52.6208 21.108C53.4802 21.108 53.7393 21.108 53.7393 20.5682V7.68178C53.7393 7.05992 53.5449 7.03401 52.6855 7.03401V6.38623C53.1779 6.38623 53.5881 6.45101 54.2143 6.45101C54.8405 6.45101 55.1817 6.40782 55.9547 6.38623L59.1158 14.6691L61.8019 6.38623C62.277 6.38623 62.4022 6.45101 62.9636 6.45101C63.2875 6.45101 63.5466 6.45101 63.8446 6.42942C64.1685 6.40782 64.6392 6.38623 65.1142 6.38623V7.03401C64.0389 7.03401 64.0173 7.09879 64.0173 8.19569V20.4128C64.0173 20.8705 64.3412 21.1037 64.9847 21.1037V21.7515C63.4387 21.7515 63.4387 21.6867 62.8125 21.6867C62.2511 21.6867 62.0826 21.7515 60.6618 21.7515V21.1037C61.7156 21.1037 61.8019 21.1037 61.8019 20.3264V8.83915L58.7703 17.8519H58.101L54.5511 8.9687V20.5423C54.5511 21.0821 54.6807 21.1037 55.6912 21.1037V21.7515C54.4432 21.7515 54.5296 21.6867 54.1625 21.6867C53.7522 21.6867 53.5147 21.7515 52.6165 21.7515V21.1037L52.6208 21.108Z" fill="white"/>
<path d="M66.9226 21.1092H69.5051C70.4724 21.1092 70.6668 20.958 70.6668 20.5089V7.88157C70.6668 7.29857 70.4724 7.04377 69.9801 7.04377H66.9485V6.396C68.4125 6.396 69.8981 6.46077 71.8112 6.46077C73.1672 6.46077 74.5232 6.396 76.4795 6.396V7.04377H73.6163C73.0333 7.04377 72.9685 7.30288 72.9685 7.83838V20.5089C72.9685 20.9408 73.0765 21.1092 73.7415 21.1092H76.4752V21.757H74.3245C73.5947 21.757 72.6706 21.6922 71.8069 21.6922C70.9432 21.6922 71.0986 21.757 69.2244 21.757H66.9226V21.1092Z" fill="white"/>
<path d="M92.6965 23.6485V23.994C91.3837 23.994 90.913 24.3784 89.5095 24.3784C88.6285 24.3784 87.1213 23.8169 85.9597 23.1735C84.582 22.4653 83.4852 21.947 82.9885 21.9686H82.8806C82.7078 21.9686 82.5351 21.9686 82.3667 21.947H82.2587C78.6873 21.6231 76.8994 18.6131 76.8994 14.1564C76.8994 9.44493 79.4819 6.1499 82.8806 6.1499C86.2792 6.1499 88.8617 8.75397 88.8617 13.5302C88.8617 17.4687 87.4841 20.198 85.3551 21.3597C86.1108 21.6188 87.5057 22.137 88.8185 22.8669C89.7211 23.3808 90.5805 23.6442 92.6922 23.6442L92.6965 23.6485ZM79.2919 13.5821C79.2919 17.9697 80.4536 21.3943 83.2476 21.3943C85.1391 21.3943 86.4952 19.438 86.4952 14.2946C86.4952 9.9286 85.2039 6.67676 82.6862 6.67676C80.1685 6.67676 79.2832 9.6479 79.2832 13.5821" fill="white"/>
<path d="M90.9727 17.0659V7.85884C90.9727 7.31471 90.5366 7.04264 89.6599 7.04264V6.39487C90.9943 6.39487 91.1023 6.45965 92.1128 6.45965C92.9074 6.45965 92.9722 6.39487 94.5226 6.39487V7.04264C93.2745 7.04264 93.2745 7.02105 93.2745 7.85884V16.85C93.2745 19.2813 93.6848 21.2592 95.7922 21.2592C97.0618 21.2592 97.9644 20.2055 98.3531 19.7304V7.78975C98.3531 7.08151 98.3315 7.03401 97.0187 7.03401V6.38623C98.3963 6.38623 98.5042 6.45101 99.4284 6.45101C100.184 6.45101 100.422 6.38623 101.989 6.38623V7.03401C100.655 7.03401 100.633 7.0556 100.633 7.78975V19.9032C100.633 21.0433 100.655 21.108 102.011 21.108V21.7558C101.73 21.7558 101.389 21.7558 101.147 21.7342C100.888 21.7126 100.439 21.691 100.137 21.691C99.9423 21.691 99.7523 21.691 99.5364 21.7126C99.2556 21.7342 98.759 21.7558 98.3531 21.7558V20.4214C97.7701 21.0044 96.8891 21.9674 94.9328 21.9674C91.7285 21.9674 90.9771 19.4497 90.9771 17.0616L90.9727 17.0659Z" fill="white"/>
<path d="M102.935 21.1086C104.852 21.1086 104.934 21.087 104.934 19.7958V8.3949C104.934 7.03889 104.891 7.03889 102.935 7.03889V6.39111H113.476L113.752 9.08155H113.044C112.742 7.05616 111.623 7.03457 109.322 7.03457H107.257V13.2748L110.121 13.3396C110.984 13.3612 112.077 12.9941 112.077 11.4006H112.746V15.9825H112.077C112.077 14.281 111.153 13.8967 110.121 13.9183L107.236 13.9831V21.1043H109.067C111.844 21.1043 112.768 20.6724 113.8 18.565H114.448L113.739 21.7521H102.939V21.1043L102.935 21.1086Z" fill="white"/>
<path d="M21.0825 0.0253906L19.6228 4.30504H19.9596L22.663 0.0253906H21.0868H21.0825Z" fill="white"/>
<path d="M20.003 4.37904H19.5193L21.0308 -0.0517578H22.797L20.003 4.37904ZM19.7266 4.22789H19.9166L22.525 0.0993902H21.1344L19.7266 4.23221V4.22789Z" fill="white"/>
</g>
<defs>
<clipPath id="clip0_274_10577">
<rect width="117" height="26" fill="white"/>
</clipPath>
</defs>
</svg>
